<?xml version="1.0" standalone="no"?>
<!DOCTYPE svg PUBLIC "-//W3C//DTD SVG 20010904//EN"
 "http://www.w3.org/TR/2001/REC-SVG-20010904/DTD/svg10.dtd">
<svg version="1.0" xmlns="http://www.w3.org/2000/svg"
 width="128.000000pt" height="128.000000pt" viewBox="0 0 128.000000 128.000000"
 preserveAspectRatio="xMidYMid meet">
<metadata>
Created by potrace 1.16, written by Peter Selinger 2001-2019
</metadata>
<g transform="translate(0.000000,128.000000) scale(0.100000,-0.100000)"
fill="#000000" stroke="none">
<path d="M530 1252 c-25 -10 -45 -23 -45 -29 0 -6 -4 -15 -9 -20 -5 -5 -6 -3
-2 5 16 28 -14 9 -53 -34 -117 -126 -122 -288 -14 -402 l45 -47 -40 48 c-79
94 -94 209 -42 313 16 33 42 71 57 85 l27 24 -29 -35 c-99 -121 -100 -275 -3
-384 22 -26 36 -46 31 -46 -4 0 -1 -5 7 -11 12 -8 10 -9 -7 -4 -25 7 -107 -30
-98 -45 3 -5 0 -12 -6 -16 -8 -4 -9 -3 -5 4 11 18 -10 14 -25 -5 -10 -11 -10
-14 -1 -9 18 11 15 1 -5 -15 -11 -10 -14 -10 -9 -1 19 32 -17 6 -67 -47 -55
-60 -109 -144 -122 -191 -3 -14 10 7 30 47 21 40 62 98 92 130 l55 58 -50 -58
c-58 -69 -106 -158 -127 -242 -18 -73 -20 -195 -2 -215 10 -12 9 -11 -7 0 -16
13 -18 25 -13 110 3 52 8 106 12 120 l6 25 -12 -25 c-6 -14 -14 -68 -16 -121
-8 -151 -57 -139 557 -139 607 0 561 -10 558 123 l-2 82 -3 -82 c-3 -62 -8
-84 -21 -94 -14 -11 -15 -11 -4 1 15 17 16 130 1 202 -16 78 -71 185 -129 253
l-52 60 55 -58 c30 -31 68 -83 85 -115 17 -31 32 -52 32 -47 0 37 -163 245
-192 245 -6 0 -5 -8 3 -18 11 -15 11 -15 -1 -4 -8 7 -15 18 -15 24 0 6 -6 13
-14 16 -9 3 -11 0 -6 -8 5 -9 4 -11 -4 -6 -6 4 -9 11 -6 16 3 5 -12 18 -34 30
-48 24 -62 26 -35 5 17 -14 17 -14 -11 -3 -34 14 -61 33 -30 22 11 -4 17 -4
13 1 -4 4 7 24 24 43 87 100 100 241 31 347 -25 39 -25 39 -3 20 l24 -20 -23
33 c-21 30 -41 47 -25 20 5 -7 3 -8 -5 -4 -7 5 -10 11 -7 14 7 7 -13 32 -26
32 -5 0 -6 -5 -2 -12 4 -7 3 -8 -5 -4 -6 4 -9 12 -5 17 3 5 -19 20 -48 34 -64
30 -160 33 -228 7z"/>
</g>
</svg>
