<?xml version="1.0" standalone="no"?>
<!DOCTYPE svg PUBLIC "-//W3C//DTD SVG 20010904//EN"
 "http://www.w3.org/TR/2001/REC-SVG-20010904/DTD/svg10.dtd">
<svg version="1.0" xmlns="http://www.w3.org/2000/svg"
 width="198.000000pt" height="198.000000pt" viewBox="0 0 198.000000 198.000000"
 preserveAspectRatio="xMidYMid meet">
<metadata>
Created by potrace 1.16, written by Peter Selinger 2001-2019
</metadata>
<g transform="translate(0.000000,198.000000) scale(0.100000,-0.100000)"
fill="#000000" stroke="none">
<path d="M460 929 c0 -91 0 -91 35 -126 34 -34 38 -35 92 -31 48 4 61 10 85
37 26 29 28 37 28 121 0 89 0 90 -25 90 -25 0 -25 -1 -25 -81 0 -44 -5 -89
-10 -99 -15 -27 -74 -36 -105 -16 -24 16 -25 22 -25 106 0 89 0 90 -25 90 -25
0 -25 -1 -25 -91z"/>
<path d="M780 895 l0 -125 25 0 c25 0 25 0 25 95 0 52 2 95 5 95 3 0 37 -16
75 -35 l69 -35 3 -57 c3 -51 6 -58 26 -61 22 -3 22 -2 22 123 0 125 0 126 -22
123 -19 -2 -24 -10 -26 -41 l-3 -38 -74 40 c-41 23 -86 41 -100 41 l-25 0 0
-125z"/>
<path d="M1430 990 c0 -23 -4 -30 -20 -30 -13 0 -20 -7 -20 -20 0 -14 6 -20
18 -18 15 3 17 -7 20 -74 3 -75 4 -78 27 -78 24 0 25 2 25 79 0 74 1 79 20 74
15 -4 20 0 20 16 0 14 -6 21 -20 21 -16 0 -20 7 -20 30 0 25 -4 30 -25 30 -21
0 -25 -5 -25 -30z"/>
<path d="M1158 944 c-69 -37 -65 -130 7 -160 58 -24 149 -15 143 14 -2 12 -18
15 -66 16 -44 1 -65 5 -72 16 -8 13 3 15 75 18 78 3 85 5 85 23 0 70 -100 113
-172 73z"/>
</g>
</svg>
